<svg width="134" height="43" viewBox="0 0 134 43" fill="none" xmlns="http://www.w3.org/2000/svg">
<rect width="134" height="43" fill="white"/>
<path d="M96.7827 3.04H93.668V24.2064H96.7827V3.04ZM102.053 20.3833C100.888 20.3833 99.949 21.321 99.949 22.4855C99.949 23.65 100.888 24.5877 102.053 24.5877C103.218 24.5877 104.157 23.65 104.157 22.4855C104.157 21.321 103.218 20.3833 102.053 20.3833V20.3833ZM110.242 16.8386C110.242 14.3139 111.758 12.1499 114.697 12.1499H116.554V9.2026H114.697C112.397 9.2026 111.345 9.9343 110.273 11.1503L110.252 11.1812V9.2026H107.168V24.1963H110.242V16.8386V16.8386ZM90.2846 9.2026H87.1699V24.1963H90.2846V9.2026ZM88.7273 6.7191C89.8927 6.7191 90.8312 5.7813 90.8312 4.6169C90.8312 3.4524 89.8824 2.5146 88.7273 2.5146C87.5618 2.5146 86.6233 3.4524 86.6233 4.6169C86.6233 5.7813 87.5721 6.7191 88.7273 6.7191ZM80.7349 10.7174C79.5385 9.5014 77.7027 8.8213 75.8772 8.8213C71.5249 8.8213 67.9873 12.3559 67.9873 16.7046C67.9873 21.0533 71.5249 24.5879 75.8772 24.5879C77.7027 24.5879 79.6313 23.8047 80.7349 22.5681V24.2066H83.798V9.2026H80.7349V10.7174V10.7174ZM75.9803 21.4552C73.2988 21.4552 71.2567 19.3942 71.2567 16.7046C71.2567 14.015 73.2988 11.9746 75.9803 11.9746C78.6619 11.9746 80.7761 13.8913 80.7761 16.7046C80.7761 19.5178 78.6619 21.4552 75.9803 21.4552ZM125.176 24.5879C126.568 24.5879 128.342 23.8357 129.456 22.5578C129.466 23.1246 129.456 23.6399 129.456 24.1963H132.519V9.2026H129.446V17.4363C129.446 19.5694 127.816 21.5583 125.372 21.5583C123.237 21.5583 121.721 20.0125 121.721 17.797V9.2129H118.647V18.0546C118.658 22.0117 120.793 24.5879 125.176 24.5879V24.5879ZM58.9936 8.8213C56.9515 8.8213 54.9507 9.7487 53.7337 11.212C52.6198 9.7384 51.0006 8.8213 48.8244 8.8213C47.0505 8.8213 45.7819 9.6148 45.1012 10.2537V9.2026H42.0381V24.1963H45.1012V15.4268C45.1012 13.4688 46.6998 11.8819 48.6491 11.8819C50.5984 11.8819 52.197 13.4791 52.197 15.4268V24.1963H55.2601V15.4268C55.2601 13.4688 56.8587 11.8819 58.808 11.8819C60.7572 11.8819 62.3558 13.4791 62.3558 15.4268V24.1963H65.419V15.4268C65.4396 11.4078 62.8303 8.8213 58.9936 8.8213V8.8213ZM99.4436 31.1316L99.423 31.1523V29.9878H97.4634V38.7882H99.423V34.6662C99.423 33.1823 100.31 31.9148 102.032 31.9148H103.115V29.9878H102.032C100.692 29.9878 100.073 30.4206 99.4436 31.1316V31.1316ZM120.514 34.8105C120.514 36.2222 119.38 37.0672 118.276 37.0672C117.111 37.0672 116.286 36.2222 116.286 35.0166V29.998H114.316V35.1608C114.316 37.6031 115.718 39.0149 118.152 39.0149C118.946 39.0149 119.885 38.613 120.504 38.005V38.7985H122.463V29.998H120.493L120.514 34.8105V34.8105ZM108.22 29.7715C105.673 29.7715 103.6 31.8428 103.6 34.3881C103.6 36.9334 105.673 39.0047 108.22 39.0047C110.768 39.0047 112.841 36.9334 112.841 34.3881C112.841 31.8428 110.778 29.7715 108.22 29.7715V29.7715ZM108.22 37.0468C106.756 37.0468 105.559 35.8514 105.559 34.3881C105.559 32.9248 106.756 31.7294 108.22 31.7294C109.685 31.7294 110.881 32.9248 110.881 34.3881C110.881 35.8514 109.695 37.0468 108.22 37.0468ZM129.074 29.7715C128.064 29.7715 127.084 30.1219 126.393 30.7195V29.9879H124.433V41.818H126.393V38.0051C127.053 38.6234 128.074 39.015 129.074 39.015C131.622 39.015 133.695 36.9437 133.695 34.3984C133.695 31.8428 131.622 29.7715 129.074 29.7715V29.7715ZM129.013 37.0056C127.476 37.0056 126.362 35.9029 126.362 34.3881C126.362 32.8733 127.476 31.7809 129.013 31.7809C130.498 31.7809 131.622 32.9042 131.622 34.3881C131.622 35.8823 130.498 37.0056 129.013 37.0056ZM93.5545 30.7195C92.8634 30.1219 91.8837 29.7715 90.8729 29.7715C88.3255 29.7715 86.2524 31.8428 86.2524 34.3881C86.2524 36.9334 88.3255 39.0047 90.8729 39.0047C91.8733 39.0047 92.8944 38.6131 93.5545 37.9948V38.17C93.5235 39.9734 92.6469 40.8905 90.9348 40.8905H90.9142C89.9447 40.8905 89.0887 40.5195 88.2945 39.7467L88.2223 39.6745L86.7991 41.0348L86.8609 41.1069C87.5932 41.9622 89.0784 42.9412 90.8626 42.9412H90.9554C92.6262 42.9103 95.4315 42.2611 95.514 38.2422V29.9776H93.5545V30.7195V30.7195ZM90.9348 37.0056C89.4496 37.0056 88.3255 35.8823 88.3255 34.3881C88.3255 32.9042 89.4496 31.7809 90.9348 31.7809C92.4715 31.7809 93.5854 32.8733 93.5854 34.3881C93.5751 35.9029 92.4715 37.0056 90.9348 37.0056ZM21.411 16.4364C21.411 19.1672 19.1936 21.3828 16.4605 21.3828C13.7274 21.3828 11.51 19.1672 11.51 16.4364C11.51 13.7056 13.7274 11.49 16.4605 11.49C19.1936 11.49 21.411 13.7159 21.411 16.4364ZM16.4605 0C7.3845 0 0 7.3783 0 16.4467C0 25.515 7.3845 32.8831 16.4605 32.8831C19.7815 32.8831 22.989 31.8938 25.7324 30.0183L25.784 29.9874L23.5665 27.4112L23.5253 27.4318C21.411 28.7817 18.977 29.5031 16.4605 29.5031C9.2513 29.5031 3.3829 23.6395 3.3829 16.4364C3.3829 9.2332 9.2513 3.3697 16.4605 3.3697C23.6697 3.3697 29.5381 9.2332 29.5381 16.4364C29.5381 17.3741 29.435 18.3119 29.2287 19.2496C28.8161 20.95 27.6301 21.4652 26.7328 21.3931C25.8355 21.3209 24.7835 20.682 24.7732 19.1157V16.4364C24.7732 11.8507 21.0397 8.1203 16.4502 8.1203C11.8606 8.1203 8.1271 11.8507 8.1271 16.4364C8.1271 21.0221 11.8606 24.7525 16.4502 24.7525C18.6779 24.7525 20.7716 23.8766 22.3495 22.2999C23.2674 23.722 24.7629 24.6185 26.4647 24.7525C26.609 24.7628 26.7637 24.7731 26.9081 24.7731C28.1045 24.7731 29.2906 24.3712 30.2497 23.6498C31.2398 22.8976 31.9721 21.8156 32.3743 20.5171C32.4362 20.311 32.56 19.8267 32.56 19.8267V19.8061C32.7972 18.7653 32.9106 17.7245 32.9106 16.4364C32.921 7.3783 25.5364 0 16.4605 0Z" fill="#787878"/>
</svg>
